<svg xmlns="http://www.w3.org/2000/svg" viewBox="0 0 600 600" class="svg-logo" width="100" height="100" style="height: auto;"><rect rx="0" ry="0" width="100%" height="100%" fill="rgba(255, 255, 255, 0)"></rect><g data-element="wrapper" transform="translate(-2.000007629397615 -2.1032064978498966e-12) scale(1.0000000000000098)"></g><g data-element="icon" transform="scale(0.14166685401093568) translate(812.5351997571836 1217.6441173372243)"></g><path id="color_x5F_1_1_" fill="#091C1E" d="M591.729,166.522l-17.127-20.189c-6.629-7.817-16.314-12.301-26.57-12.301    c-8.236,0-16.234,2.936-22.521,8.269L397.876,250.564c-7.095,6.017-11.421,14.438-12.182,23.71    c-0.659,8.026,1.431,15.852,5.905,22.413c-36.305,38.762-75.912,77.595-120.336,106.107    c-51.192,32.854-103.901,48.715-161.182,48.458c-17.927-0.078-59.347-4.854-63.61-27.84c-3.293-17.76,19.846-27.825,33.638-32.391    c27.107-8.972,56.99-10.307,85.304-9.925c48.157,0.636,96.772-4.536,126.28-46.367c14.766-20.932,18.928-46.278,11.135-67.8    c-7.397-20.429-24.099-35.06-47.027-41.2c-31.69-8.485-60,8.42-84.206,27.126c-24.665,19.061-55.389,31.52-86.229,36.726    c-16.96,2.863-37.924-2.998-46.733-13.061c-2.948-3.368-6.491-9.065-3.229-19.61c5.287-17.097,26.901-25.452,42.665-28.56    c25.497-5.028,50.932,1.34,76.573-2.876c24.886-4.092,44.877-16.86,54.848-35.029c7.935-14.46,8.993-31.095,2.981-46.843    c-6.398-16.756-20.333-30.331-37.276-36.314c-27.602-9.749-45.549,2.485-58.652,11.415c-7.074,4.822-13.185,8.986-20.646,10.626    c-10.727,2.355-22.088-0.499-28.944-7.275c-9.2-9.093-8.699-22.958-5.162-32.902c3.457-9.718,12.158-21.515,25.304-22.781    c9.376-0.902,16.244-9.235,15.341-18.61c-0.903-9.375-9.239-16.248-18.61-15.341C59.517,34.759,38.76,52.118,29.653,77.72    c-8.997,25.297-3.893,51.58,13.323,68.593c15.096,14.92,38.18,21.175,60.239,16.329c13.898-3.054,24.228-10.093,32.529-15.75    c13.124-8.944,32.154-14.281,43.379,1.793c5.136,7.354,4.691,17.645,0.463,25.35c-4.823,8.789-16.216,15.436-30.48,17.782    c-17.41,2.863-34.046,0.402-51.306,0.51c-17.796,0.112-36.016,3.567-52.351,10.712c-22.007,9.626-36.749,24.77-42.632,43.794    c-5.977,19.326-2.371,37.847,10.151,52.152c19.6,22.393,54.214,28.257,78.073,24.229c30.187-5.097,59.353-16.178,85.302-32.422    c21.305-13.336,42.101-39.757,70.64-32.114c12.013,3.218,20.234,10.086,23.775,19.864c3.999,11.045,1.406,24.7-6.936,36.526    c-19.27,27.318-53.102,32.527-97.956,31.923c-21.172-0.284-52.4,0.769-80.893,7.37c-36.247,8.396-59.544,23.891-69.247,46.051    c-9.278,21.193-3.681,37.234,2.647,46.961c17.998,27.658,64.617,37.871,91.561,37.988c0.5,0.002,0.982,0.003,1.481,0.003    c64.375-0.004,118.546-18.209,166.251-46.469c-72.256,61.444-191.607,75.054-239.471,53.238    c33.567,36.816,149.719,110.448,262.042,56.306c109.252-52.661,103.16-168.824,97.481-208.722    c5.429-5.586,10.801-11.219,16.123-16.878c6.408,5.953,14.839,9.307,23.7,9.307c8.237,0,16.235-2.937,22.52-8.269l127.636-108.263    c7.095-6.018,11.421-14.438,12.183-23.71C600.642,182.632,597.747,173.618,591.729,166.522z M437.997,297.866    c-0.099,0.085-0.232,0.171-0.456,0.171c-0.343,0-0.5-0.186-0.558-0.255l-17.127-20.193c-0.058-0.067-0.193-0.227-0.168-0.524    c0.024-0.297,0.183-0.432,0.251-0.49l28.983-24.584l18.337,21.054L437.997,297.866z"></path></svg>